#!OML:ASF I:\Actors\actors\Patient Classification 1\Patient 1\Session 1\Subject1.ASF
:FULLY-SPECIFIED
:DEGREES
306
root 0.389011 17.5875 9.45162 14.9251 0.909797 -9.23457
lowerback 5.73232 2.15255 7.47542
upperback -6.48985 3.78226 0.936666
thorax -9.76384 1.34345 -3.69796
lowerneck -17.9498 -6.65942 -5.2466
upperneck 17.3025 -10.3585 11.8899
head 9.35646 -3.95907 3.52514
rclavicle -2.09221e-014 -3.97569e-016
rhumerus 50.1175 30.3517 -29.0004
rradius 48.3315
rwrist 32.5928
rhand 9.30215 -16.6953
rfingers 7.12502
rthumb 34.4642 -403.375
lclavicle -2.09221e-014 -3.97569e-016
lhumerus 2.36554 -32.4907 93.6495
lradius 59.0015
lwrist 13.5247
lhand -40.0212 -21.7993
lfingers 7.12502
lthumb -12.9883 7.77641
rfemur -10.41 23.8517 24.6199
rtibia 3.62401
rfoot -12.1841 -26.5285
rtoes 8.3453
lfemur -5.3239 -42.3225 -3.3975
ltibia -3.04588
lfoot -21.7656 50.9599
ltoes 11.5799
307
root 0.389644 17.5871 9.45486 14.9463 0.990311 -9.20726
lowerback 5.68574 2.1244 7.42221
upperback -6.51788 3.73852 0.963582
thorax -9.7767 1.32612 -3.63239
lowerneck -18.2299 -6.73312 -5.13911
upperneck 17.6479 -10.4624 11.6125
head 9.51308 -4.00606 3.39245
rclavicle 3.8117e-014 2.06736e-014
rhumerus 48.8356 30.1472 -30.5002
rradius 49.4147
rwrist 32.3427
rhand 9.24503 -16.3765
rfingers 7.12502
rthumb 34.4099 -403.068
lclavicle 3.8117e-014 2.06736e-014
lhumerus 2.45973 -32.5422 93.6596
lradius 58.9957
lwrist 14.0677
lhand -39.7861 -21.3971
lfingers 7.12502
lthumb -12.7616 8.19289
rfemur -10.4161 23.8012 24.5919
rtibia 3.62475
rfoot -12.1493 -26.5355
rtoes 8.19927
lfemur -5.32094 -42.5866 -3.42202
ltibia -3.07205
lfoot -21.8387 51.1858
ltoes 11.4619
308
root 0.39035 17.5865 9.4573 14.9553 1.09891 -9.19991
lowerback 5.63338 2.06564 7.36524
upperback -6.53849 3.6533 1.00438
thorax -9.78349 1.28993 -3.5442
lowerneck -18.6383 -6.80509 -5.06583
upperneck 18.1117 -10.5725 11.3676
head 9.73987 -4.04605 3.27322
rclavicle -7.97623e-015 -1.31198e-014
rhumerus 47.624 30.2036 -31.1419
rradius 51.2237
rwrist 31.3495
rhand 9.12579 -16.6955
rfingers 7.12502
rthumb 34.2967 -403.413
lclavicle -7.97623e-015 -1.31198e-014
lhumerus 2.68885 -32.5921 93.5422
lradius 58.9623
lwrist 15.1142
lhand -39.4418 -20.4577
lfingers 7.12502
lthumb -12.4296 9.15274
rfemur -10.4068 23.7564 24.5913
rtibia 3.62841
rfoot -12.2283 -26.561
rtoes 8.39111
lfemur -5.36 -42.7234 -3.38494
ltibia -3.08471
lfoot -21.9056 51.2171
ltoes 11.5799
309
root 0.39017 17.5847 9.46019 14.9723 1.17904 -9.20467
lowerback 5.56842 1.99072 7.24696
upperback -6.5606 3.54091 1.06827
thorax -9.79119 1.24592 -3.39331
lowerneck -18.3829 -6.54394 -5.16107
upperneck 17.7408 -10.2236 11.7193
head 9.55929 -3.87629 3.46812
rclavicle 4.73853e-014 7.95139e-015
rhumerus 46.3266 30.2119 -32.0717
rradius 52.9991
rwrist 30.0835
rhand 8.81843 -17.2036
rfingers 7.12502
rthumb 34.0048 -403.986
lclavicle 4.73853e-014 7.95139e-015
lhumerus 3.13616 -32.5212 93.3661
lradius 58.7401
lwrist 16.7325
lhand -39.0031 -19.1825
lfingers 7.12502
lthumb -12.0067 10.4532
rfemur -10.4142 23.6919 24.5952
rtibia 3.63883
rfoot -12.258 -26.5404
rtoes 8.27914
lfemur -5.38498 -42.927 -3.32992
ltibia -3.10668
lfoot -22.2514 51.2714
ltoes 12.0841
310
root 0.389072 17.582 9.46438 15.0074 1.22604 -9.16257
lowerback 5.12626 1.93997 7.15904
upperback -6.38189 3.40885 1.04745
thorax -9.34393 1.21015 -3.32484
lowerneck -18.3835 -6.45347 -5.16987
upperneck 17.4749 -10.1275 12.002
head 9.47732 -3.81174 3.58023
rclavicle -3.23025e-016 4.37326e-015
rhumerus 44.9704 29.8506 -33.391
rradius 54.6904
rwrist 28.4704
rhand 8.38139 -17.9252
rfingers 7.12502
rthumb 33.5896 -404.799
lclavicle -3.23025e-016 4.37326e-015
lhumerus 4.18164 -32.4227 92.8905
lradius 58.3134
lwrist 18.7555
lhand -38.2921 -17.0689
lfingers 7.12502
lthumb -11.321 12.6056
rfemur -10.4191 23.6176 24.5374
rtibia 3.6029
rfoot -12.2151 -26.5199
rtoes 8.08085
lfemur -5.41002 -43.1237 -3.34945
ltibia -3.10667
lfoot -22.4733 51.393
ltoes 12.2271
311
root 0.387767 17.5798 9.46752 15.0243 1.30151 -9.08703
lowerback 4.99721 1.83031 6.96934
upperback -6.37907 3.22958 1.03449
thorax -9.28951 1.13778 -3.20611
lowerneck -18.3163 -6.32547 -4.94873
upperneck 17.3739 -10.0101 12.0487
head 9.41097 -3.74377 3.57816
rclavicle 4.96962e-017 -3.29983e-014
rhumerus 43.3215 29.6606 -35.2149
rradius 56.4289
rwrist 27.176
rhand 8.01743 -18.8408
rfingers 7.12502
rthumb 33.2436 -405.789
lclavicle 4.96962e-017 -3.29983e-014
lhumerus 4.97897 -32.0877 92.5599
lradius 57.8269
lwrist 20.8689
lhand -37.1761 -14.1287
lfingers 7.12502
lthumb -10.2445 15.6018
rfemur -10.3724 23.5099 24.4638
rtibia 3.51102
rfoot -12.2058 -26.5268
rtoes 8.06641
lfemur -5.44261 -43.1929 -3.41461
ltibia -3.09307
lfoot -22.4043 51.4063
ltoes 12.0194
312
root 0.3856 17.5779 9.46959 15.0207 1.42357 -9.07657
lowerback 5.3549 1.67321 6.59874
upperback -6.66162 3.04374 1.19115
thorax -9.85968 1.0523 -2.83127
lowerneck -18.1333 -6.16947 -4.82176
upperneck 17.5192 -9.82946 11.9612
head 9.3985 -3.6625 3.55939
rclavicle 2.20899e-014 3.93594e-014
rhumerus 41.2901 29.7461 -37.3775
rradius 58.2699
rwrist 26.8031
rhand 7.96854 -19.7323
rfingers 7.12502
rthumb 33.1971 -406.691
lclavicle 2.20899e-014 3.93594e-014
lhumerus 5.33581 -31.4634 92.706
lradius 57.2278
lwrist 22.8293
lhand -35.594 -11.1724
lfingers 7.12502
lthumb -8.71805 18.6276
rfemur -10.2976 23.4796 24.4814
rtibia 3.40263
rfoot -12.2109 -26.6262
rtoes 7.98991
lfemur -5.44997 -43.3394 -3.38842
ltibia -3.11569
lfoot -22.4081 51.4378
ltoes 12.0224
313
root 0.382513 17.5754 9.47219 15.0083 1.59395 -9.13931
lowerback 5.47831 1.51252 6.39649
upperback -6.80605 2.83817 1.33388
thorax -10.1296 0.961132 -2.54656
lowerneck -17.9775 -6.00299 -4.36413
upperneck 17.5867 -9.61981 11.4679
head 9.32045 -3.58984 3.34722
rclavicle 1.16289e-014 -1.11319e-014
rhumerus 39.2473 29.5286 -39.749
rradius 60.0376
rwrist 27.0612
rhand 8.13391 -20.6572
rfingers 7.12502
rthumb 33.3543 -407.582
lclavicle 1.16289e-014 -1.11319e-014
lhumerus 6.16255 -30.8841 92.6387
lradius 56.3985
lwrist 24.4227
lhand -33.8299 -8.66333
lfingers 7.12502
lthumb -7.01532 21.2004
rfemur -10.2269 23.5288 24.5951
rtibia 3.33497
rfoot -12.2379 -26.8128
rtoes 7.81541
lfemur -5.44205 -43.6521 -3.25778
ltibia -3.1655
lfoot -22.5618 51.5743
ltoes 12.2247
314
root 0.38 17.5734 9.47608 14.9919 1.78269 -9.16824
lowerback 5.74759 1.32678 6.06433
upperback -7.04146 2.60775 1.53959
thorax -10.5978 0.864293 -2.12199
lowerneck -17.8205 -5.82763 -3.95302
upperneck 17.8269 -9.38415 10.8867
head 9.29893 -3.51112 3.11817
rclavicle 3.926e-015 0
rhumerus 36.7274 29.3058 -42.4444
rradius 62.1275
rwrist 27.5844
rhand 8.4442 -21.5472
rfingers 7.12502
rthumb 33.6493 -408.408
lclavicle 3.926e-015 0
lhumerus 6.95017 -30.244 92.7069
lradius 55.357
lwrist 25.4773
lhand -32.4333 -6.97131
lfingers 7.12502
lthumb -5.66712 22.9329
rfemur -10.1566 23.5562 24.6803
rtibia 3.30681
rfoot -12.3043 -27.0181
rtoes 7.52631
lfemur -5.46419 -43.835 -3.15557
ltibia -3.20358
lfoot -22.5407 51.5922
ltoes 12.1561
315
root 0.378225 17.5728 9.48205 14.996 1.93685 -9.13744
lowerback 5.19178 1.17516 5.94625
upperback -6.82513 2.3324 1.54456
thorax -10.0438 0.761413 -1.99454
lowerneck -17.9087 -5.69828 -4.23849
upperneck 17.8012 -9.26013 11.4871
head 9.34537 -3.40716 3.39031
rclavicle 2.13694e-015 3.97569e-016
rhumerus 35.1672 28.8582 -44.3092
rradius 64.4643
rwrist 26.9955
rhand 8.6887 -23.1218
rfingers 7.12502
rthumb 33.8816 -409.932
lclavicle 2.13694e-015 3.97569e-016
lhumerus 8.69098 -29.9398 92.0575
lradius 54.0523
lwrist 26.1776
lhand -31.6075 -6.20713
lfingers 7.12502
lthumb -4.86974 23.7169
rfemur -10.0886 23.6432 24.6774
rtibia 3.25045
rfoot -12.4396 -27.2634
rtoes 7.54585
lfemur -5.49438 -43.9727 -3.1213
ltibia -3.2538
lfoot -22.4022 51.6078
ltoes 11.95
